<?xml version="1.0" encoding="iso-8859-1"?>
<!-- Generator: Adobe Illustrator 19.0.0, SVG Export Plug-In . SVG Version: 6.00 Build 0)  -->
<svg version="1.1" id="Capa_1" xmlns="http://www.w3.org/2000/svg" xmlns:xlink="http://www.w3.org/1999/xlink" x="0px" y="0px"
	 viewBox="0 0 512 512" style="enable-background:new 0 0 512 512;" xml:space="preserve">
<g>
	<g>
		<path d="M75,0H15C6.709,0,0,6.709,0,15v61c0,8.291,6.709,16,15,16s15-7.709,15-16V30h45c8.291,0,15-6.709,15-15S83.291,0,75,0z"/>
	</g>
</g>
<g>
	<g>
		<path d="M497,0h-60c-8.291,0-15,6.709-15,15s6.709,15,15,15h45v46c0,8.291,6.709,16,15,16c8.291,0,15-7.709,15-16V15
			C512,6.709,505.291,0,497,0z"/>
	</g>
</g>
<g>
	<g>
		<path d="M75,482H30v-45c0-8.291-6.709-15-15-15s-15,6.709-15,15v60c0,8.291,6.709,15,15,15h60c8.291,0,15-6.709,15-15
			C90,488.709,83.291,482,75,482z"/>
	</g>
</g>
<g>
	<g>
		<path d="M497,422c-8.291,0-15,6.709-15,15v45h-45c-8.291,0-15,6.709-15,15c0,8.291,6.709,15,15,15h60c8.291,0,15-6.709,15-15v-60
			C512,428.709,505.291,422,497,422z"/>
	</g>
</g>
<g>
	<g>
		<path d="M32.095,149.398v224.295L188.5,278.724c7.134-4.146,16.318-1.714,20.493,5.493c4.146,7.178,1.685,16.347-5.493,20.493
			L51.515,396.979L241,505.809V265.73L32.095,149.398z"/>
	</g>
</g>
<g>
	<g>
		<path d="M324.5,278.724l155.405,94.969V149.398L271,265.73v240.079l189.485-108.831L309.5,304.71
			c-7.178-4.146-9.639-13.315-5.493-20.493C308.167,277.039,317.308,274.578,324.5,278.724z"/>
	</g>
</g>
<g>
	<g>
		<path d="M263.5,2.007c-4.629-2.666-10.371-2.666-15,0L43.832,121.59L256,239.759L468.168,121.59L263.5,2.007z"/>
	</g>
</g>
<g>
</g>
<g>
</g>
<g>
</g>
<g>
</g>
<g>
</g>
<g>
</g>
<g>
</g>
<g>
</g>
<g>
</g>
<g>
</g>
<g>
</g>
<g>
</g>
<g>
</g>
<g>
</g>
<g>
</g>
</svg>
