<svg height="512pt" viewBox="0 0 512 512.00025" width="512pt" xmlns="http://www.w3.org/2000/svg"><path d="m47.089844 391c-5.195313 0-10.25-2.703125-13.019532-7.539062-4.121093-7.183594-1.636718-16.347657 5.546876-20.464844l148.867187-85.371094c7.183594-4.121094 16.351563-1.636719 20.46875 5.546875 4.121094 7.183594 1.636719 16.347656-5.546875 20.46875l-148.871094 85.371094c-2.351562 1.347656-4.914062 1.988281-7.445312 1.988281zm0 0" fill="#0bf"/><path d="m464.761719 391c-2.527344 0-5.09375-.640625-7.445313-1.988281l-148.867187-85.371094c-7.183594-4.121094-9.667969-13.285156-5.546875-20.46875s13.285156-9.667969 20.46875-5.546875l148.867187 85.371094c7.183594 4.117187 9.667969 13.28125 5.546875 20.464844-2.769531 4.835937-7.824218 7.539062-13.023437 7.539062zm0 0" fill="#0bf"/><g fill="#007bff"><path d="m14.996094 90.972656c-8.28125 0-14.996094-6.710937-14.996094-14.992187v-60.984375c0-8.28125 6.714844-14.996094 14.996094-14.996094h59.984375c8.28125 0 14.996093 6.714844 14.996093 14.996094s-6.714843 14.996094-14.996093 14.996094h-44.988281v45.988281c0 8.28125-6.714844 14.992187-14.996094 14.992187zm0 0"/><path d="m496.859375 90.972656c-8.28125 0-14.996094-6.710937-14.996094-14.992187v-45.988281h-44.988281c-8.28125 0-14.996094-6.714844-14.996094-14.996094s6.714844-14.996094 14.996094-14.996094h59.984375c8.28125 0 14.996094 6.714844 14.996094 14.996094v60.984375c0 8.28125-6.714844 14.992187-14.996094 14.992187zm0 0"/><path d="m74.980469 511.855469h-59.984375c-8.28125 0-14.996094-6.714844-14.996094-14.996094v-60.984375c0-8.28125 6.714844-14.992188 14.996094-14.992188s14.996094 6.710938 14.996094 14.992188v45.988281h44.988281c8.28125 0 14.996093 6.714844 14.996093 14.996094s-6.714843 14.996094-14.996093 14.996094zm0 0"/><path d="m496.859375 511.855469h-59.984375c-8.28125 0-14.996094-6.714844-14.996094-14.996094s6.714844-14.996094 14.996094-14.996094h44.988281v-45.988281c0-8.28125 6.714844-14.992188 14.996094-14.992188s14.996094 6.710938 14.996094 14.992188v60.984375c0 8.28125-6.714844 14.996094-14.996094 14.996094zm0 0"/></g><path d="m255.925781 512c-2.59375 0-5.191406-.671875-7.515625-2.019531l-208.851562-121.003907c-4.628906-2.679687-7.476563-7.625-7.476563-12.972656v-240.007812c0-5.347656 2.851563-10.292969 7.476563-12.972656l208.851562-121.003907c4.648438-2.691406 10.386719-2.691406 15.035156 0l208.847657 121.003907c4.628906 2.679687 7.480469 7.625 7.480469 12.972656v240.007812c0 5.347656-2.851563 10.292969-7.480469 12.972656l-208.847657 121.003907c-2.324218 1.347656-4.921874 2.019531-7.519531 2.019531zm-193.851562-144.640625 193.851562 112.316406 193.855469-112.316406v-222.71875l-193.855469-112.3125-193.851562 112.3125zm0 0" fill="#00d0ff"/><path d="m255.925781 512c-8.28125 0-14.992187-6.714844-14.992187-14.996094v-232.324218l-201.328125-115.679688c-4.824219-2.773438-7.523438-7.820312-7.527344-13.011719 0-2.535156.644531-5.105469 1.996094-7.460937 4.128906-7.179688 13.292969-9.65625 20.472656-5.53125l201.382813 115.707031 201.378906-115.707031c7.179687-4.125 16.34375-1.652344 20.472656 5.53125 1.355469 2.355468 1.996094 4.925781 1.996094 7.460937 0 5.191407-2.703125 10.238281-7.527344 13.011719l-201.328125 115.679688v232.324218c0 8.28125-6.710937 14.996094-14.996094 14.996094zm0 0" fill="#00e3ff"/></svg>